{"title":"Nightcrawler 2014 720p HDCAM FIRST ENG x264 AAC.mp4","uid":11483259,"size":821529399,"categoryP":"video","categoryS":"movies","magnet":"?xt=urn:btih:3e2fc7eded0784fde616c80f51c40d14ed6b6787&amp;dn=Nightcrawler+2014+720p+HDCAM+FIRST+ENG+x264+AAC.mp4&amp;tr=udp%3A%2F%2Ftracker.openbittorrent.com%3A80&amp;tr=udp%3A%2F%2Fopen.demonii.com%3A1337&amp;tr=udp%3A%2F%2Ftracker.coppersurfer.tk%3A6969&amp;tr=udp%3A%2F%2Fexodus.desync.com%3A6969","seeders":2,"leechers":0,"uploader":"zloitoi","files":1,"time":1416197647,"description":"IMDB : &lt;a href=&quot;\nhttp://www.imdb.com/title/tt2872718&quot; rel=&quot;nofollow&quot; target=&quot;_NEW&quot;&gt;\nhttp://www.imdb.com/title/tt2872718&lt;/a&gt;\n\nGeneral\nFormat                         : MPEG-4\nFormat profile                 : Base Media\nCodec ID                       : isom\nFile size                      : 783 MiB\nDuration                       : 1h 53mn\nOverall bit rate mode          : Variable\nOverall bit rate               : 968 Kbps\nEncoded date                   : UTC 2014-11-17 02:50:52\nTagged date                    : UTC 2014-11-17 02:50:52\n\nVideo\nID                             : 1\nFormat                         : MPEG-4 Visual\nFormat profile                 : Simple@L1\nFormat settings, BVOP          : No\nFormat settings, QPel          : No\nFormat settings, GMC           : No warppoints\nFormat settings, Matrix        : Default (H.263)\nCodec ID                       : 20\nDuration                       : 1h 53mn\nBit rate mode                  : Variable\nBit rate                       : 873 Kbps\nMaximum bit rate               : 7 196 Kbps\nWidth                          : 1 280 pixels\nHeight                         : 536 pixels\nDisplay aspect ratio           : 2.40:1\nFrame rate mode                : Constant\nFrame rate                     : 23.976 fps\nColor space                    : YUV\nChroma subsampling             : 4:2:0\nBit depth                      : 8 bits\nScan type                      : Progressive\nCompression mode               : Lossy\nBits/(Pixel*Frame)             : 0.053\nStream size                    : 707 MiB (90%)\nWriting library                : Lavc53.8.0\nEncoded date                   : UTC 2014-11-17 02:50:52\nTagged date                    : UTC 2014-11-17 02:51:06\n\nAudio\nID                             : 2\nFormat                         : AAC\nFormat/Info                    : Advanced Audio Codec\nFormat profile                 : LC\nCodec ID                       : 40\nDuration                       : 1h 53mn\nBit rate mode                  : Variable\nBit rate                       : 92.3 Kbps\nMaximum bit rate               : 109 Kbps\nChannel(s)                     : 2 channels\nChannel positions              : Front: L R\nSampling rate                  : 48.0 KHz\nCompression mode               : Lossy\nStream size                    : 74.7 MiB (10%)\nEncoded date                   : UTC 2014-11-17 02:51:00\nTagged date                    : UTC 2014-11-17 02:51:06","torrent":{"xt":"urn:btih:3e2fc7eded0784fde616c80f51c40d14ed6b6787","amp;dn":"Nightcrawler+2014+720p+HDCAM+FIRST+ENG+x264+AAC.mp4","amp;tr":["udp%3A%2F%2Ftracker.openbittorrent.com%3A80","udp%3A%2F%2Fopen.demonii.com%3A1337","udp%3A%2F%2Ftracker.coppersurfer.tk%3A6969","udp%3A%2F%2Fexodus.desync.com%3A6969"],"infoHash":"3e2fc7eded0784fde616c80f51c40d14ed6b6787","infoHashBuffer":{"type":"Buffer","data":[62,47,199,237,237,7,132,253,230,22,200,15,81,196,13,20,237,107,103,135]},"announce":[],"urlList":[]}}